<svg width="621" height="272" viewBox="0 0 621 272" fill="none" xmlns="http://www.w3.org/2000/svg">
    <rect x="0.532227" y="73.3944" width="600" height="200" rx="24" transform="rotate(-7 0.532227 73.3944)"
        fill="#347D64" />
    <rect x="10.1331" y="35.9834" width="600" height="200" rx="24" fill="#2E9E78" />
    <path
        d="M59.8491 80.3795H78.7131V183.483H59.8491V80.3795ZM131.688 185.787C124.104 185.787 117.336 184.107 111.384 180.747C105.432 177.291 100.776 172.635 97.4162 166.779C94.1522 160.827 92.5202 154.155 92.5202 146.763C92.5202 139.467 94.1522 132.843 97.4162 126.891C100.776 120.939 105.432 116.283 111.384 112.923C117.336 109.467 124.104 107.739 131.688 107.739C139.176 107.739 145.896 109.467 151.848 112.923C157.8 116.283 162.408 120.939 165.672 126.891C169.032 132.843 170.712 139.467 170.712 146.763C170.712 154.155 169.032 160.827 165.672 166.779C162.408 172.635 157.8 177.291 151.848 180.747C145.896 184.107 139.176 185.787 131.688 185.787ZM131.688 168.363C135.336 168.363 138.696 167.499 141.768 165.771C144.84 164.043 147.288 161.547 149.112 158.283C150.936 155.019 151.848 151.179 151.848 146.763C151.848 142.443 150.936 138.651 149.112 135.387C147.288 132.123 144.84 129.627 141.768 127.899C138.696 126.171 135.336 125.307 131.688 125.307C128.04 125.307 124.68 126.171 121.608 127.899C118.536 129.627 116.04 132.123 114.12 135.387C112.296 138.651 111.384 142.443 111.384 146.763C111.384 151.083 112.296 154.923 114.12 158.283C116.04 161.547 118.536 164.043 121.608 165.771C124.68 167.499 128.04 168.363 131.688 168.363ZM220.282 185.787C212.698 185.787 205.93 184.107 199.978 180.747C194.026 177.291 189.37 172.635 186.01 166.779C182.746 160.827 181.114 154.155 181.114 146.763C181.114 139.467 182.746 132.843 186.01 126.891C189.37 120.939 194.026 116.283 199.978 112.923C205.93 109.467 212.698 107.739 220.282 107.739C227.77 107.739 234.49 109.467 240.442 112.923C246.394 116.283 251.002 120.939 254.266 126.891C257.626 132.843 259.306 139.467 259.306 146.763C259.306 154.155 257.626 160.827 254.266 166.779C251.002 172.635 246.394 177.291 240.442 180.747C234.49 184.107 227.77 185.787 220.282 185.787ZM220.282 168.363C223.93 168.363 227.29 167.499 230.362 165.771C233.434 164.043 235.882 161.547 237.706 158.283C239.53 155.019 240.442 151.179 240.442 146.763C240.442 142.443 239.53 138.651 237.706 135.387C235.882 132.123 233.434 129.627 230.362 127.899C227.29 126.171 223.93 125.307 220.282 125.307C216.634 125.307 213.274 126.171 210.202 127.899C207.13 129.627 204.634 132.123 202.714 135.387C200.89 138.651 199.978 142.443 199.978 146.763C199.978 151.083 200.89 154.923 202.714 158.283C204.634 161.547 207.13 164.043 210.202 165.771C213.274 167.499 216.634 168.363 220.282 168.363ZM272.461 110.043H290.173V118.971H291.325C293.341 115.803 296.269 113.163 300.109 111.051C303.949 108.843 308.365 107.739 313.357 107.739C319.981 107.739 325.981 109.419 331.357 112.779C336.829 116.043 341.101 120.651 344.173 126.603C347.245 132.555 348.781 139.275 348.781 146.763C348.781 154.347 347.245 161.115 344.173 167.067C341.101 172.923 336.829 177.531 331.357 180.891C325.981 184.155 319.981 185.787 313.357 185.787C308.365 185.787 303.901 184.731 299.965 182.619C296.125 180.507 293.245 177.867 291.325 174.699H290.173L291.325 185.067V214.587H272.461V110.043ZM310.045 168.363C313.597 168.363 316.909 167.451 319.981 165.627C323.053 163.803 325.501 161.259 327.325 157.995C329.149 154.731 330.061 150.987 330.061 146.763C330.061 142.539 329.149 138.795 327.325 135.531C325.501 132.267 323.053 129.771 319.981 128.043C316.909 126.219 313.597 125.307 310.045 125.307C306.589 125.307 303.325 126.219 300.253 128.043C297.181 129.771 294.733 132.267 292.909 135.531C291.085 138.795 290.173 142.539 290.173 146.763C290.173 150.987 291.085 154.731 292.909 157.995C294.733 161.259 297.181 163.803 300.253 165.627C303.325 167.451 306.589 168.363 310.045 168.363ZM402.808 185.787C397.816 185.787 393.352 184.731 389.416 182.619C385.576 180.507 382.696 177.867 380.776 174.699H379.624V183.483H361.912V80.3795H380.776V108.603L379.624 118.971H380.776C382.792 115.803 385.72 113.163 389.56 111.051C393.4 108.843 397.816 107.739 402.808 107.739C409.432 107.739 415.432 109.419 420.808 112.779C426.28 116.043 430.552 120.651 433.624 126.603C436.696 132.555 438.232 139.275 438.232 146.763C438.232 154.347 436.696 161.115 433.624 167.067C430.552 172.923 426.28 177.531 420.808 180.891C415.432 184.155 409.432 185.787 402.808 185.787ZM399.496 168.363C403.048 168.363 406.36 167.451 409.432 165.627C412.504 163.803 414.952 161.259 416.776 157.995C418.6 154.731 419.512 150.987 419.512 146.763C419.512 142.539 418.6 138.795 416.776 135.531C414.952 132.267 412.504 129.771 409.432 128.043C406.36 126.219 403.048 125.307 399.496 125.307C396.04 125.307 392.776 126.219 389.704 128.043C386.632 129.771 384.184 132.267 382.36 135.531C380.536 138.795 379.624 142.539 379.624 146.763C379.624 150.987 380.536 154.731 382.36 157.995C384.184 161.259 386.632 163.803 389.704 165.627C392.776 167.451 396.04 168.363 399.496 168.363ZM462.708 101.979C459.348 101.979 456.468 100.779 454.068 98.3795C451.668 95.9795 450.468 93.0995 450.468 89.7395C450.468 86.3795 451.668 83.5475 454.068 81.2435C456.468 78.8435 459.348 77.6435 462.708 77.6435C466.068 77.6435 468.9 78.8435 471.204 81.2435C473.604 83.5475 474.804 86.3795 474.804 89.7395C474.804 93.0995 473.604 95.9795 471.204 98.3795C468.9 100.779 466.068 101.979 462.708 101.979ZM453.204 110.043H472.068V183.483H453.204V110.043ZM491.849 110.043H509.561V119.259H510.713C512.921 115.707 516.041 112.923 520.073 110.907C524.105 108.795 528.473 107.739 533.177 107.739C542.009 107.739 548.729 110.427 553.337 115.803C557.945 121.179 560.249 128.523 560.249 137.835V183.483H541.385V140.139C541.385 135.435 540.185 131.787 537.785 129.195C535.385 126.603 532.025 125.307 527.705 125.307C522.617 125.307 518.489 127.275 515.321 131.211C512.249 135.147 510.713 140.091 510.713 146.043V183.483H491.849V110.043Z"
        fill="#F6F8FE" />
</svg>