<?xml version="1.0" encoding="UTF-8"?>
<svg width="56px" height="56px" viewBox="0 0 56 56" version="1.1" xmlns="http://www.w3.org/2000/svg" xmlns:xlink="http://www.w3.org/1999/xlink">
    <!-- Generator: Sketch 56.2 (81672) - https://sketch.com -->
    <title>Any language</title>
    <desc>Created with Sketch.</desc>
    <g id="light" stroke="none" stroke-width="1" fill="none" fill-rule="evenodd">
        <g id="Titles" opacity="0.597353981" transform="translate(-699.000000, -1181.000000)"></g>
        <g id="Slides" transform="translate(-684.000000, -1247.000000)"></g>
        <g id="Group-31" transform="translate(3.000000, 5.000000)" stroke-linecap="round" stroke-width="2">
            <g id="Documentation">
                <path d="M17.643758,3.93029336 L14.2750806,4.01502387 C13.223164,4.04148216 12.3716573,4.87850564 12.3271587,5.92981353 L10.8173267,41.6005922 C10.7844334,42.3777172 10.1621109,43.0003116 9.38500024,43.0335442 C8.60442957,43.0669247 7.92513807,42.5043894 7.81244177,41.7312759 L3.64601121,13.1489414 C3.49002778,12.0788718 4.21284882,11.0786153 5.27779887,10.8908359 L8.36521292,10.3464415" id="Path-3" stroke="#70C7AA" stroke-linejoin="round" transform="translate(10.504873, 23.511301) rotate(-10.000000) translate(-10.504873, -23.511301) "></path>
                <path d="M33.7995605,43 L20,43 C18.8954305,43 18,42.1045695 18,41 L18,2 C18,0.8954305 18.8954305,0 20,0 L20,0 L46,0 C47.1045695,0 48,0.8954305 48,2 L48,34.7661133" id="Path" stroke="#2E9E78"></path>
                <path d="M26,15.9550781 L22.6010408,19.3540374 C22.2690951,19.685983 22.2690951,20.2241732 22.6010408,20.5561189 L26,23.9550781" id="Path-3" stroke="#2E9E78" stroke-linejoin="round"></path>
                <path d="M43.6618345,15.9550781 L40.2628753,19.3540374 C39.9309296,19.685983 39.9309296,20.2241732 40.2628753,20.5561189 L43.6618345,23.9550781" id="Path-3-Copy" stroke="#2E9E78" stroke-linejoin="round" transform="translate(41.837875, 19.955078) scale(-1, 1) translate(-41.837875, -19.955078) "></path>
                <path d="M35.5264893,13 L30.4726562,27.0158691" id="Path-4" stroke="#2E9E78"></path>
            </g>
            <path d="M41,31 C45.4182609,31 49,34.5817391 49,39 C49,43.4182609 45.4182609,47 41,47 C36.5817391,47 33,43.4182609 33,39 C33,34.5817391 36.5817391,31 41,31 Z" id="Stroke-3" stroke="#2E9E78" stroke-linejoin="round"></path>
            <path d="M40.0676217,35.7485767 L43.9135276,38.1445038 C44.382289,38.4365333 44.5255584,39.0532762 44.2335289,39.5220375 C44.1514528,39.6537849 44.0398339,39.7646169 43.9075091,39.8457588 L40.0616031,42.2040791 C39.5907873,42.4927846 38.9750736,42.3451551 38.686368,41.8743393 C38.5899098,41.7170369 38.5388555,41.5361132 38.5388555,41.3515916 L38.5388555,36.5973442 C38.5388555,36.0450594 38.9865707,35.5973442 39.5388555,35.5973442 C39.7257813,35.5973442 39.9089651,35.6497366 40.0676217,35.7485767 Z" id="Rectangle-50" stroke="#2E9E78" stroke-linejoin="round" fill-rule="nonzero"></path>
        </g>
    </g>
</svg>